<?xml version="1.0" encoding="UTF-8"?>
<svg version="1.1" xmlns="http://www.w3.org/2000/svg" width="24" height="24">
<path d="M0 0 C1.11375 0.7425 1.11375 0.7425 2.25 1.5 C2.60370611 6.89401821 2.60370611 6.89401821 2.25 9.5 C0.25 11.125 0.25 11.125 -1.75 12.5 C-2.08397787 15.62586875 -2.08397787 15.62586875 -1.75 18.5 C-3.73 19.49 -3.73 19.49 -5.75 20.5 C-6.41 18.19 -7.07 15.88 -7.75 13.5 C-9.07 13.5 -10.39 13.5 -11.75 13.5 C-12.41 15.81 -13.07 18.12 -13.75 20.5 C-15.07 19.84 -16.39 19.18 -17.75 18.5 C-17.75 16.19 -17.75 13.88 -17.75 11.5 C-19.07 10.84 -20.39 10.18 -21.75 9.5 C-21.75 6.86 -21.75 4.22 -21.75 1.5 C-15.55450987 -2.63032676 -6.76463242 -3.38231621 0 0 Z M-17.75 5.5 C-16.61298403 6.86532549 -16.61298403 6.86532549 -13.58984375 6.59765625 C-12.30207031 6.58605469 -11.01429687 6.57445312 -9.6875 6.5625 C-8.39714844 6.55347656 -7.10679688 6.54445313 -5.77734375 6.53515625 C-4.77832031 6.52355469 -3.77929688 6.51195312 -2.75 6.5 C-2.42 5.84 -2.09 5.18 -1.75 4.5 C-6.90412181 2.7819594 -13.10803804 2.40535869 -17.75 5.5 Z " fill="#3D3144" transform="translate(21.75,2.5)"/>
<path d="M0 0 C0.33 0.99 0.66 1.98 1 3 C0.360625 3.28875 -0.27875 3.5775 -0.9375 3.875 C-3.15206079 4.82823451 -3.15206079 4.82823451 -4 7 C-3.34 7 -2.68 7 -2 7 C-2 8.98 -2 10.96 -2 13 C-3.98 13.99 -3.98 13.99 -6 15 C-6.66 12.69 -7.32 10.38 -8 8 C-9.32 8 -10.64 8 -12 8 C-12.66 10.31 -13.32 12.62 -14 15 C-15.32 14.34 -16.64 13.68 -18 13 C-18 11.02 -18 9.04 -18 7 C-17.34 7 -16.68 7 -16 7 C-15.5359375 6.0409375 -15.5359375 6.0409375 -15.0625 5.0625 C-14 3 -14 3 -13 2 C-11.14375 2.0309375 -11.14375 2.0309375 -9.25 2.0625 C-5.72329353 2.11958698 -3.19916916 1.59958458 0 0 Z " fill="#46394F" transform="translate(22,8)"/>
<path d="M0 0 C1.051875 -0.00257812 2.10375 -0.00515625 3.1875 -0.0078125 C6 0.125 6 0.125 9 1.125 C10.1875 3.6875 10.1875 3.6875 11 6.125 C9.8553125 5.8775 9.8553125 5.8775 8.6875 5.625 C2.07565598 4.72847878 -4.47612003 4.63854634 -11 6.125 C-10.1875 3.6875 -10.1875 3.6875 -9 1.125 C-5.77717587 0.05072529 -3.38488847 -0.0082963 0 0 Z " fill="#755F84" transform="translate(12,0.875)"/>
<path d="M0 0 C0.33 0.99 0.66 1.98 1 3 C-0.98 3.99 -0.98 3.99 -3 5 C-3 7.31 -3 9.62 -3 12 C-3.99 12.495 -3.99 12.495 -5 13 C-5.66 11.02 -6.32 9.04 -7 7 C-8.65 6.67 -10.3 6.34 -12 6 C-12.33 4.68 -12.66 3.36 -13 2 C-11.783125 2.04125 -10.56625 2.0825 -9.3125 2.125 C-5.78105873 2.13754508 -3.19996434 1.59998217 0 0 Z " fill="#866D97" transform="translate(22,8)"/>
</svg>
