<svg xmlns="http://www.w3.org/2000/svg" xmlns:xlink="http://www.w3.org/1999/xlink" version="1.1" width="256" height="256" viewBox="0 0 256 256" xml:space="preserve">
<g style="stroke: none; stroke-width: 0; stroke-dasharray: none; stroke-linecap: butt; stroke-linejoin: miter; stroke-miterlimit: 10; fill: none; fill-rule: nonzero; opacity: 1;" transform="translate(1.4065934065934016 1.4065934065934016) scale(2.81 2.81)">
	<path d="M 59.188 63.932 h -5.357 v -2.144 c 0 -2.515 1.098 -4.898 2.938 -6.376 c 4.483 -3.604 7.056 -8.961 7.056 -14.697 c 0 -5.232 -2.092 -10.098 -5.89 -13.701 c -3.796 -3.6 -8.776 -5.437 -14.015 -5.152 c -9.88 0.522 -17.89 9.009 -17.856 18.919 c 0.02 5.717 2.596 11.054 7.07 14.643 c 1.83 1.467 2.922 3.836 2.922 6.336 v 2.172 h -5.245 c -8.285 0 -15.026 6.74 -15.026 15.025 V 89 c 0 0.553 0.448 1 1 1 h 56.429 c 0.553 0 1 -0.447 1 -1 V 78.957 C 74.215 70.672 67.474 63.932 59.188 63.932 z M 34.385 53.863 c -4 -3.209 -6.305 -7.979 -6.322 -13.089 c -0.03 -8.86 7.13 -16.448 15.962 -16.915 c 4.691 -0.248 9.14 1.388 12.533 4.606 c 3.396 3.221 5.266 7.571 5.266 12.25 c 0 5.126 -2.3 9.916 -6.309 13.138 c -2.342 1.881 -3.685 4.773 -3.685 7.935 v 2.796 l -5.887 6.087 V 49.198 l 8.605 -10.37 c 0.353 -0.425 0.294 -1.056 -0.131 -1.408 c -0.425 -0.353 -1.057 -0.292 -1.408 0.131 l -8.065 9.72 l -8.01 -9.664 c -0.352 -0.425 -0.983 -0.483 -1.408 -0.132 c -0.425 0.353 -0.484 0.983 -0.132 1.408 l 8.549 10.314 v 21.474 l -5.888 -6.088 V 61.76 C 38.056 58.612 36.718 55.734 34.385 53.863 z M 72.215 88 H 17.786 v -9.043 c 0 -7.183 5.843 -13.025 13.026 -13.025 h 5.766 l 7.648 7.907 c 0.002 0.002 0.005 0.003 0.007 0.005 c 0.181 0.185 0.433 0.3 0.712 0.3 s 0.531 -0.115 0.712 -0.3 c 0.002 -0.002 0.005 -0.003 0.007 -0.005 l 7.647 -7.907 h 5.879 c 7.183 0 13.026 5.843 13.026 13.025 V 88 z" style="stroke: none; stroke-width: 1; stroke-dasharray: none; stroke-linecap: butt; stroke-linejoin: miter; stroke-miterlimit: 10; fill: rgb(241,19,19); fill-rule: nonzero; opacity: 1;" transform=" matrix(1 0 0 1 0 0) " stroke-linecap="round"/>
	<path d="M 20.345 39.006 c 0 -0.552 -0.448 -1 -1 -1 H 6.994 c -0.552 0 -1 0.448 -1 1 s 0.448 1 1 1 h 12.352 C 19.897 40.006 20.345 39.559 20.345 39.006 z" style="stroke: none; stroke-width: 1; stroke-dasharray: none; stroke-linecap: butt; stroke-linejoin: miter; stroke-miterlimit: 10; fill: rgb(241,19,19); fill-rule: nonzero; opacity: 1;" transform=" matrix(1 0 0 1 0 0) " stroke-linecap="round"/>
	<path d="M 83.007 38.006 H 70.655 c -0.553 0 -1 0.448 -1 1 s 0.447 1 1 1 h 12.352 c 0.553 0 1 -0.448 1 -1 S 83.56 38.006 83.007 38.006 z" style="stroke: none; stroke-width: 1; stroke-dasharray: none; stroke-linecap: butt; stroke-linejoin: miter; stroke-miterlimit: 10; fill: rgb(241,19,19); fill-rule: nonzero; opacity: 1;" transform=" matrix(1 0 0 1 0 0) " stroke-linecap="round"/>
	<path d="M 45 14.352 c 0.552 0 1 -0.448 1 -1 V 1 c 0 -0.552 -0.448 -1 -1 -1 s -1 0.448 -1 1 v 12.352 C 44 13.904 44.448 14.352 45 14.352 z" style="stroke: none; stroke-width: 1; stroke-dasharray: none; stroke-linecap: butt; stroke-linejoin: miter; stroke-miterlimit: 10; fill: rgb(241,19,19); fill-rule: nonzero; opacity: 1;" transform=" matrix(1 0 0 1 0 0) " stroke-linecap="round"/>
	<path d="M 63.141 21.866 c 0.256 0 0.512 -0.098 0.707 -0.293 l 8.734 -8.734 c 0.391 -0.391 0.391 -1.023 0 -1.414 s -1.023 -0.391 -1.414 0 l -8.734 8.734 c -0.391 0.391 -0.391 1.023 0 1.414 C 62.629 21.768 62.885 21.866 63.141 21.866 z" style="stroke: none; stroke-width: 1; stroke-dasharray: none; stroke-linecap: butt; stroke-linejoin: miter; stroke-miterlimit: 10; fill: rgb(241,19,19); fill-rule: nonzero; opacity: 1;" transform=" matrix(1 0 0 1 0 0) " stroke-linecap="round"/>
	<path d="M 26.152 21.573 c 0.195 0.195 0.451 0.293 0.707 0.293 s 0.512 -0.098 0.707 -0.293 c 0.391 -0.391 0.391 -1.023 0 -1.414 l -8.734 -8.734 c -0.391 -0.391 -1.023 -0.391 -1.414 0 s -0.391 1.023 0 1.414 L 26.152 21.573 z" style="stroke: none; stroke-width: 1; stroke-dasharray: none; stroke-linecap: butt; stroke-linejoin: miter; stroke-miterlimit: 10; fill: rgb(241,19,19); fill-rule: nonzero; opacity: 1;" transform=" matrix(1 0 0 1 0 0) " stroke-linecap="round"/>
</g>
</svg>