<?xml version="1.0" standalone="no"?>
<!DOCTYPE svg PUBLIC "-//W3C//DTD SVG 20010904//EN"
 "http://www.w3.org/TR/2001/REC-SVG-20010904/DTD/svg10.dtd">
<svg version="1.0" xmlns="http://www.w3.org/2000/svg"
 width="512.000000pt" height="512.000000pt" viewBox="0 0 512.000000 512.000000"
 preserveAspectRatio="xMidYMid meet">

<g transform="translate(0.000000,512.000000) scale(0.100000,-0.100000)"
fill="#000000" stroke="none">
<path d="M1828 5082 c-41 -26 -1009 -1269 -1026 -1317 -24 -71 7 -156 80 -220
54 -46 225 -130 480 -234 238 -97 384 -169 419 -208 89 -97 273 -458 350 -689
24 -69 24 -72 30 -749 3 -374 8 -688 10 -698 3 -15 -9 -23 -66 -41 -100 -34
-141 -53 -218 -102 -226 -146 -375 -398 -394 -665 -6 -84 -5 -88 20 -113 31
-30 66 -33 97 -8 19 16 24 33 31 113 10 115 29 180 81 281 128 248 409 404
689 385 365 -26 644 -307 675 -679 6 -68 10 -82 32 -98 32 -26 67 -25 93 1 20
20 21 29 16 123 -16 300 -216 590 -499 720 -40 19 -92 39 -115 45 -41 11 -42
13 -32 39 6 15 18 255 28 549 9 287 19 524 22 527 2 2 29 -4 59 -14 202 -70
426 40 497 244 26 74 23 194 -7 271 -32 84 -132 183 -215 214 -197 75 -407 -4
-497 -186 -28 -56 -33 -79 -36 -158 -4 -82 -1 -98 24 -161 l28 -69 -18 -580
c-11 -341 -23 -588 -29 -600 -14 -28 -27 -35 -63 -35 -61 0 -58 -29 -65 704
-5 655 -6 673 -28 750 -45 159 -212 518 -312 671 -99 153 -150 185 -558 355
-134 56 -279 119 -322 141 -87 43 -149 93 -149 118 0 12 858 1123 901 1166 13
12 2 -134 -13 -185 -15 -49 -51 -94 -112 -139 -50 -37 -64 -60 -245 -382 -149
-265 -191 -350 -189 -373 6 -56 27 -62 338 -95 157 -17 299 -31 316 -31 60 0
91 69 52 114 -22 25 -30 27 -268 53 -135 14 -246 27 -248 28 -1 1 66 124 150
273 143 254 157 275 213 320 61 49 117 127 136 192 5 19 15 106 21 192 12 178
6 207 -46 239 -39 24 -83 24 -118 1z m1118 -2477 c178 -111 139 -382 -64 -441
-199 -58 -378 159 -283 344 47 91 122 134 227 130 59 -3 79 -8 120 -33z"/>
<path d="M2334 4774 c-18 -9 -41 -25 -51 -37 -38 -43 -521 -724 -527 -744 -16
-49 44 -103 94 -85 15 6 117 139 285 373 156 218 267 364 277 364 15 0 821
-725 814 -733 -2 -2 -33 2 -67 8 -80 14 -127 44 -168 108 -24 39 -69 77 -194
168 -89 65 -190 140 -225 166 -95 72 -118 82 -153 67 -55 -22 -64 -70 -23
-119 l27 -31 -107 -222 c-59 -122 -106 -233 -106 -247 0 -17 15 -41 46 -70 72
-71 88 -109 86 -213 l-1 -88 62 -72 c35 -40 121 -139 192 -221 143 -165 204
-213 314 -247 137 -42 159 -40 820 70 332 56 609 101 616 101 43 0 62 -80 25
-100 -12 -6 -255 -57 -540 -114 -392 -77 -525 -107 -540 -121 -30 -27 -24 -82
12 -108 l27 -20 538 107 c296 60 549 114 563 121 62 32 110 113 110 182 -1 49
-29 110 -68 147 -33 30 -112 57 -153 50 -13 -2 -285 -47 -604 -100 -673 -111
-697 -112 -812 -53 -61 31 -84 53 -239 229 l-171 195 -5 85 c-5 96 -33 170
-86 231 l-31 36 86 177 c56 114 91 175 100 172 37 -15 301 -219 316 -246 11
-17 34 -47 53 -66 59 -58 120 -82 284 -109 134 -23 153 -24 184 -11 63 26 85
96 50 154 -21 34 -879 817 -936 855 -49 32 -123 36 -174 11z"/>
</g>
</svg>
